<svg xmlns="http://www.w3.org/2000/svg" version="1.1" xmlns:xlink="http://www.w3.org/1999/xlink" xmlns:svgjs="http://svgjs.dev/svgjs" width="1000" height="623" viewBox="0 0 1000 623"><g transform="matrix(1,0,0,1,-0.6060606060606233,0.252234506182333)"><svg viewBox="0 0 396 247" data-background-color="#262121" preserveAspectRatio="xMidYMid meet" height="623" width="1000" xmlns="http://www.w3.org/2000/svg" xmlns:xlink="http://www.w3.org/1999/xlink"><g id="tight-bounds" transform="matrix(1,0,0,1,0.2400000000000091,-0.1000030867207613)"><svg viewBox="0 0 395.52 247.2" height="247.2" width="395.52"><g><svg viewBox="0 0 395.52 247.2" height="247.2" width="395.52"><g transform="matrix(1,0,0,1,76.3852045826514,0)"><svg viewBox="0 0 242.7495908346972 247.2" height="247.2" width="242.7495908346972"><g><svg viewBox="0 0 242.7495908346972 247.2" height="247.2" width="242.7495908346972"><g><svg viewBox="0 0 242.7495908346972 247.2" height="247.2" width="242.7495908346972"><g><svg viewBox="0 0 242.7495908346972 247.2" height="247.2" width="242.7495908346972"><g><svg viewBox="0 0 242.7495908346972 247.2" height="247.2" width="242.7495908346972"><g><svg viewBox="0 0 242.7495908346972 247.2" height="247.2" width="242.7495908346972"><g transform="matrix(1,0,0,1,0,0)"><svg width="242.7495908346972" viewBox="0.4000000059604645 -29.5 30 30.549999237060547" height="247.2" data-palette-color="#ec9131"><path d="M9.8-20.4L9.8-20.4Q9.8-19.6 10.23-19 10.65-18.4 11-18.15L11-18.15Q11.7-17.7 12.8-17.15L12.8-17.15Q13.4-16.7 13.05-16.6L13.05-16.6Q12.9-16.6 12.7-16.65L12.7-16.65Q11.5-16.9 10.15-18.1 8.8-19.3 8.75-20.85L8.75-20.85Q8.6-21.4 8.6-21.8L8.6-21.8Q8.6-23.95 10.4-25.55L10.4-25.55Q13.75-28.4 21.05-28.4L21.05-28.4Q21.05-28.6 21.2-28.9L21.2-28.9Q21.3-29.5 22.75-29.5L22.75-29.5Q24-29.5 23.95-28.9L23.95-28.9Q23.75-28.5 23.7-28.25L23.7-28.25Q26.9-28.05 29.05-26.95L29.05-26.95Q29.75-26.6 30.08-26.1 30.4-25.6 30.4-25.4L30.4-25.4Q30.4-24.95 28.58-25.58 26.75-26.2 23-26.2L23-26.2Q22.75-25.15 21.28-20.9 19.8-16.65 19.4-15.63 19-14.6 18.3-12.78 17.6-10.95 17.05-9.8 16.5-8.65 15.8-7.2L15.8-7.2Q14.6-4.75 12.95-2.6L12.95-2.6Q11.7-1.15 11.05-0.65L11.05-0.65Q11.9-0.65 14.35-0.65 16.8-0.65 18.65-0.78 20.5-0.9 20.68-0.75 20.85-0.6 20.7-0.4L20.7-0.4Q20.4 0.1 19.9 0.38 19.4 0.65 12.55 0.85 5.7 1.05 4 1.05 2.3 1.05 1.55 1.05L1.55 1.05Q0.4 1 0.4 0.15L0.4 0.15Q0.4-0.3 0.7-1.1L0.7-1.1Q1.05-1.9 2.08-2.13 3.1-2.35 3.9-1.7L3.9-1.7Q5.25-0.6 6.55-0.6 7.85-0.6 9.22-1.1 10.6-1.6 12-3.4L12-3.4Q16.05-8.8 20.5-26.15L20.5-26.15Q15.9-25.75 12.85-24.28 9.8-22.8 9.8-20.4Z" opacity="1" transform="matrix(1,0,0,1,0,0)" fill="#ec9131" class="undefined-text-0" data-fill-palette-color="primary" id="text-0"></path></svg></g></svg></g></svg></g></svg></g></svg></g></svg></g></svg></g></svg></g><defs></defs></svg><rect width="395.52" height="247.2" fill="none" stroke="none" visibility="hidden"></rect></g></svg></g></svg>